<?xml version="1.0" encoding="iso-8859-1"?>
<!-- Generator: Adobe Illustrator 19.0.0, SVG Export Plug-In . SVG Version: 6.00 Build 0)  -->
<svg version="1.1" id="Capa_1" xmlns="http://www.w3.org/2000/svg" xmlns:xlink="http://www.w3.org/1999/xlink" x="0px" y="0px"
	 viewBox="0 0 58 58" style="enable-background:new 0 0 58 58;" xml:space="preserve">
<path style="fill:#48A0DC;" d="M44.007,12.993v8.688c0,0.688-0.621,1.21-1.299,1.09l-2.503-0.794
	c-7.412-1.308-13.003-1.308-20.415,0l-4.497,0.794c-0.678,0.12-1.299-0.402-1.299-1.09v-8.688C13.993,11.34,12.653,10,11,10H2.993
	C1.34,10,0,11.34,0,12.993v32.014C0,46.66,1.34,48,2.993,48H11c1.653,0,2.993-1.34,2.993-2.993v-8.688
	c0-0.688,0.621-1.21,1.299-1.09l4.497,0.794c7.412,1.308,13.003,1.308,20.415,0l2.503-0.794c0.678-0.12,1.299,0.402,1.299,1.09
	v8.688C44.007,46.66,45.347,48,47,48h8.007C56.66,48,58,46.66,58,45.007V12.993C58,11.34,56.66,10,55.007,10H47
	C45.347,10,44.007,11.34,44.007,12.993z"/>
<rect y="21" style="fill:#2980BA;" width="14" height="16"/>
<rect x="44" y="21" style="fill:#2980BA;" width="14" height="16"/>
<g>
</g>
<g>
</g>
<g>
</g>
<g>
</g>
<g>
</g>
<g>
</g>
<g>
</g>
<g>
</g>
<g>
</g>
<g>
</g>
<g>
</g>
<g>
</g>
<g>
</g>
<g>
</g>
<g>
</g>
</svg>
